<?xml version="1.0" encoding="iso-8859-1"?>
<!-- Uploaded to: SVG Repo, www.svgrepo.com, Generator: SVG Repo Mixer Tools -->
<svg height="800px" width="800px" version="1.1" id="Layer_1" xmlns="http://www.w3.org/2000/svg" xmlns:xlink="http://www.w3.org/1999/xlink" 
	 viewBox="0 0 473.931 473.931" xml:space="preserve">
<circle style="fill:#407CA8;" cx="236.966" cy="236.966" r="236.966"/>
<path style="fill:#37759B;" d="M404.518,69.383c92.545,92.541,92.552,242.59,0,335.138c-92.541,92.541-242.593,92.545-335.142,0
	L404.518,69.383z"/>
<path style="fill:#306B81;" d="M471.589,269.968l-86.962-86.958H254.732l-52.71-52.714l-18.593,18.593l-18.593-18.593
	l-30.237,30.233l22.477,22.48H80.68l-0.007,109.065l180.618,180.618C369.821,461.621,456.618,377.293,471.589,269.968z"/>
<path style="fill:#FFFFFF;" d="M134.561,130.393v53.96h-53.96v2.29v25.448v51.868l0,0v28.31l0,0l0,0h31.61l0,0h21.373l0,0h31.33
	v-79.606v-29.93v-52.34H134.561z M110.954,265.287v-53.96h23.607v53.96H110.954z M171.657,184.349h30.353v107.92h-30.353V184.349z
	 M171.657,130.393h30.353v30.349h-30.353V130.393z M296.441,184.349L296.441,184.349h-80.938v28.31l0,0v79.61h50.589v23.607h-50.589
	v30.349h50.611h30.323V293.53v-30.551v-78.629H296.441z M245.852,265.287v-53.96h20.235v53.96H245.852z M384.125,184.349h-80.938
	l0,0l0,0v79.606v28.314h53.96v23.607h-53.96v30.349h53.096h27.842v-32.351v-19.988v-29.927v-51.296l0,0V184.349z M357.147,265.287
	h-23.607v-53.96h23.607V265.287z"/>
</svg>